<svg xmlns="http://www.w3.org/2000/svg" viewBox="0 0 128 128" fill="none">
  <defs>
    <linearGradient id="clock" x1="72" y1="70" x2="119" y2="119" gradientUnits="userSpaceOnUse">
      <stop stop-color="#3A3A3A"/>
      <stop offset="1" stop-color="#111111"/>
    </linearGradient>
  </defs>
  <circle cx="94" cy="94" r="25" fill="#0D0D0D" opacity=".22"/>
  <circle cx="94" cy="92" r="24" fill="url(#clock)"/>
  <circle cx="94" cy="92" r="20.5" stroke="#0B0B0B" stroke-width="1.7"/>
  <g stroke="#F7F7F7" stroke-width="2.5" stroke-linecap="round">
    <path d="M94 75v3.3"/>
    <path d="M102.5 77.3l-1.7 2.8"/>
    <path d="M108.7 83.5l-2.8 1.7"/>
    <path d="M111 92h-3.3"/>
    <path d="M108.7 100.5l-2.8-1.7"/>
    <path d="M102.5 106.7l-1.7-2.8"/>
    <path d="M94 109v-3.3"/>
    <path d="M85.5 106.7l1.7-2.8"/>
    <path d="M79.3 100.5l2.8-1.7"/>
    <path d="M77 92h3.3"/>
    <path d="M79.3 83.5l2.8 1.7"/>
    <path d="M85.5 77.3l1.7 2.8"/>
  </g>
  <path d="M94 92 87.2 86.9" stroke="#111111" stroke-width="4.4" stroke-linecap="round"/>
  <path d="M94 92 104.5 83.4" stroke="#FF4B45" stroke-width="4.8" stroke-linecap="round"/>
  <circle cx="94" cy="92" r="2.6" fill="#181818"/>
</svg>