<svg xmlns="http://www.w3.org/2000/svg" width="96" height="64" viewBox="0 0 96 64" fill="none" stroke="currentColor" stroke-width="2.4" stroke-linecap="round" stroke-linejoin="round">
  <path d="M19 46h-5c-2.2 0-4-1.8-4-4v-6c0-2.6 1.8-4.8 4.3-5.3L24 29l9.6-9.6c1.9-1.9 4.4-2.9 7.1-2.9H57c2.9 0 5.6 1.2 7.5 3.4L73 29l9.3 1.9c2.7.6 4.7 3 4.7 5.8V42c0 2.2-1.8 4-4 4h-6" />
  <path d="M33 46h30" />
  <path d="M30.5 29l6.6-6.6c1.1-1.1 2.6-1.7 4.2-1.7H47V29z" />
  <path d="M51 20.7h5.6c1.7 0 3.3.7 4.4 2L66.6 29H51z" />
  <path d="M83 35h2" />
  <circle cx="26" cy="46" r="7" />
  <circle cx="70" cy="46" r="7" />
  <g transform="translate(82 11) scale(1.3)" stroke-width="1.85">
    <path d="M-6-7c1.7 0 2.6 1 2.6 2.8V2.5H4.2C5.8 2.5 7 3.7 7 5.3V7H-7V-5.2C-7-6.3-6.7-7-6-7z" />
    <circle cx="1.6" cy="-4.2" r="2.1" />
    <path d="M1.6-1.5V2.5" />
  </g>
</svg>
